<?xml version="1.0" encoding="UTF-8" standalone="no"?>
<!-- Created with Inkscape (http://www.inkscape.org/) -->

<svg
   xmlns:dc="http://purl.org/dc/elements/1.1/"
   xmlns:cc="http://creativecommons.org/ns#"
   xmlns:rdf="http://www.w3.org/1999/02/22-rdf-syntax-ns#"
   xmlns:svg="http://www.w3.org/2000/svg"
   xmlns="http://www.w3.org/2000/svg"
   xmlns:xlink="http://www.w3.org/1999/xlink"
   version="1.1"
   width="70"
   height="70"
   viewBox="0 0 70 70"
   id="svg2"
   xml:space="preserve"
   style="fill-rule:evenodd;stroke-miterlimit:1.41420996"><metadata
     id="metadata415"><rdf:RDF><cc:Work
         rdf:about=""><dc:format>image/svg+xml</dc:format><dc:type
           rdf:resource="http://purl.org/dc/dcmitype/StillImage" /><dc:title></dc:title></cc:Work></rdf:RDF></metadata><g
     id="layer2"><g
       id="g3211"><path
         d="M 28.6,6.7 38.8,1.2 60.1,9.4 48.1,70 9.4,63.3 0,7.3 17.5,0.1 28.6,6.7 z"
         id="polygon3218"
         style="fill:url(#linearGradient3587);fill-rule:nonzero" /><path
         d="m 19.3,24.3 6.8,31.3 12.7,9 L 70,46 62.3,31.7 70,23.7 61,1.4 44.6,0 19.3,24.3 z"
         id="polygon3225"
         style="fill:url(#linearGradient3589);fill-rule:nonzero" /><path
         d="M 64.4,9.8 56,20.4 62.3,31.7 70,23.7 64.4,9.8 z"
         id="polygon3232"
         style="fill:url(#linearGradient3591);fill-rule:nonzero" /></g></g><g
     id="layer1"><rect
       width="43.200001"
       height="43.200001"
       x="13.4"
       y="13.4"
       id="rect3238"
       style="fill:#000000" /><g
       transform="matrix(0.172493,0,0,0.172493,12.7717,23.7561)"
       id="g9"><clipPath
         id="_clip4"><rect
           width="250.444"
           height="250.444"
           x="9.4399996"
           y="-60.037998"
           id="rect12" /></clipPath><g
         clip-path="url(#_clip4)"
         id="g14"><g
           transform="translate(-0.1,-31.4)"
           id="g16"><path
             d="m 57.9,219.3 c 0.2,-0.5 0.4,-1 0.6,-1.5 l 0.1,-0.2 c 0.5,-1.2 1,-2.5 1.5,-3.7 0.6,-1.6 1.2,-3.3 1.8,-4.9 0.4,-0.9 0.7,-1.8 1,-2.8 0.8,-2.2 1.9,-5.1 3.2,-7.9 0.8,-1.7 1.4,-2.9 2.1,-4 0.8,-1.3 1.6,-2.5 2.5,-3.7 l 0.7,-1 1.1,-0.7 c 0.1,-0.1 0.3,-0.2 0.5,-0.3 0.5,-0.3 1.1,-0.5 1.5,-0.7 0.7,-0.3 1.6,-0.6 2.6,-0.9 1.4,-0.4 3,-0.8 4.9,-1.2 2.8,-0.6 5.8,-1.2 9.6,-1.8 5.7,-0.9 11.8,-1.7 19.1,-2.5 12.9,-1.4 25.8,-2.4 38.2,-3 6.6,-0.3 11.6,-0.4 16.3,-0.4 1,0 2,0 3,0 3.1,0.1 6.7,0.2 10,0.7 1.2,0.2 2.3,0.4 3.1,0.7 0.3,0.1 0.6,0.2 0.7,0.3 l 1,0.4 0.8,0.7 c 0.3,0.3 0.6,0.6 0.9,0.9 1.1,1.1 2.3,2.4 3.5,3.9 3.8,4.8 7.2,10.6 10.2,17.2 2.9,6.4 4.7,12.1 5.8,17.7 l 1.5,7.9 -18.4,0 -1.1,-5.3 c -1.2,-5.6 -16.3,-20.4 -23.8,-23.3 -0.8,-0.3 -4,-1.2 -13.9,-1.2 -20.4,0 -49.2,3.6 -53.3,4.5 -4.9,2.3 -12.4,11.9 -16.7,21.5 l -1.8,3.9"
             id="path18"
             style="fill:#ffffff;fill-rule:nonzero" /></g><g
           transform="translate(-0.1,-31.4)"
           id="g20"><path
             d="m 182.9,190.1 c -0.9,-1.2 -1.9,-2.3 -3,-3.3 -0.2,-0.2 -0.5,-0.5 -0.7,-0.7 0,0 -0.1,0 -0.2,-0.1 -0.5,-0.2 -1.2,-0.3 -1.9,-0.4 -2.9,-0.4 -6,-0.5 -9.1,-0.6 -6.3,-0.1 -12.6,0.1 -18.9,0.4 -12.6,0.6 -25.3,1.6 -37.8,3 -6.3,0.7 -12.6,1.5 -18.8,2.5 -3.1,0.5 -6.2,1 -9.2,1.7 -1.5,0.3 -3,0.7 -4.4,1.1 -0.7,0.2 -1.4,0.4 -2,0.7 -0.3,0.1 -0.6,0.2 -0.7,0.4 0,0 -0.1,0 -0.1,0.1 -0.7,1 -1.4,2 -2.1,3.1 -0.7,1.1 -1.2,2.3 -1.8,3.5 -1.1,2.4 -2.1,4.9 -3,7.4 -0.9,2.5 -1.9,5.1 -2.8,7.7 -0.5,1.3 -1,2.6 -1.6,3.9 -0.2,0.6 -0.5,1.2 -0.8,1.8 l 8.5,0 c 4.6,-10.3 13.3,-22.1 20.5,-25 2,-0.8 34.2,-4.8 55.5,-4.8 7.9,0 13.3,0.6 16.3,1.7 8.7,3.4 26.1,19.5 27.9,28.2 l 4.9,0 c -1,-5.5 -3,-10.9 -5.3,-16.1 -2.6,-6 -5.7,-11.5 -9.4,-16.2"
             id="path22"
             style="fill:#ba8449;fill-rule:nonzero" /></g><g
           transform="translate(-0.1,-31.4)"
           id="g24"><path
             d="m 192.1,228.6 -1,-5.4 c -0.9,-4.5 -2.4,-9.3 -4.8,-14.6 -2.6,-5.6 -5.4,-10.5 -8.6,-14.4 -0.6,-0.8 -1.2,-1.5 -1.8,-2.1 -2.5,-0.4 -5.4,-0.4 -8,-0.5 -0.9,0 -1.8,0 -2.8,0 -4.5,0 -9.3,0.1 -15.7,0.4 -12.2,0.6 -24.7,1.6 -37.4,3 -7.1,0.8 -13,1.6 -18.4,2.4 -3.5,0.5 -6.3,1.1 -8.8,1.6 -1.6,0.4 -2.8,0.7 -3.9,1 -0.2,0 -0.3,0.1 -0.4,0.1 -0.2,0.4 -0.5,0.7 -0.7,1.1 -0.5,0.8 -0.9,1.7 -1.6,2.9 -1.1,2.3 -2,4.7 -2.8,6.8 -0.4,0.9 -0.7,1.8 -1,2.7 -0.6,1.7 -1.2,3.4 -1.9,5.1 -0.5,1.3 -1.1,2.6 -1.6,4 l -0.1,0.2 c -0.2,0.6 -0.5,1.2 -0.7,1.7 l -1.8,4 -11.7,0 -1.7,-0.8 -0.2,-0.1 c -4,-2.3 -4,-5.7 -3.9,-7.1 l 0,-0.3 0.2,-0.9 0.3,-1.1 c 0.2,-0.7 0.4,-1.5 0.6,-2.2 0.4,-1.5 0.9,-2.9 1.4,-4.3 0.9,-2.6 2,-5.4 3.3,-8.4 1.4,-3.1 2.7,-5.8 4.2,-8.3 0.7,-1.3 1.5,-2.6 2.5,-4.1 0.9,-1.4 1.9,-2.8 2.9,-4.1 0.9,-1.1 1.7,-1.8 2.3,-2.2 l 0.1,0 c 0.6,-0.5 1.2,-0.8 1.5,-0.9 0.9,-0.5 1.6,-0.8 2.1,-1 1.2,-0.5 2.3,-0.8 3.2,-1.1 2,-0.6 3.9,-1 5.3,-1.3 2.9,-0.6 6,-1.2 9.9,-1.8 5.8,-0.9 11.9,-1.6 19.4,-2.4 13,-1.3 26,-2.3 38.6,-2.8 6,-0.2 10.7,-0.4 15,-0.4 1.6,0 3.1,0 4.6,0 3.2,0.1 6.8,0.2 10.7,0.8 l 0.1,0 c 0.9,0.2 2.3,0.4 3.9,0.9 l 0.1,0 c 0.4,0.2 1,0.4 1.7,0.7 0.5,0.3 0.9,0.5 1.2,0.7 l 0.5,0.4 0.4,0.3 1.5,1.5 c 1.3,1.3 2.5,2.7 3.8,4.4 4,5.2 7.5,11.2 10.7,18.3 1.5,3.3 2.8,6.6 3.8,9.8 1.1,3.5 1.9,6.8 2.5,10 l 1.2,7.7 -18.2,0 0,0.1 z"
             id="path26"
             style="fill:#ffffff;fill-rule:nonzero" /></g><g
           transform="translate(-0.1,-31.4)"
           id="g28"><path
             d="m 64.3,228.6 4.4,-9.5 c 3.7,-7.9 12.6,-22.4 22.5,-26.5 l 0.2,-0.1 c 3.3,-1.2 36.7,-5.1 57.1,-5.1 11.4,0 15.7,1.1 17.9,2 10.3,4 28.2,20.9 30.6,30.9 l 2,8.2 -134.7,0 0,0.1 z"
             id="path30"
             style="fill:#ffffff;fill-rule:nonzero" /></g><g
           transform="translate(-0.1,-31.4)"
           id="g32"><path
             d="m 185.4,228.6 -1.2,-5.1 c -1.1,-4.7 -15.2,-18.8 -22.5,-21.7 -0.7,-0.3 -3.6,-1.1 -13.2,-1.1 -19.6,0 -48,3.5 -52.6,4.4 -3.8,1.9 -10.7,10 -15.2,19.6 l -1.8,3.8 -16.6,0 4.2,-9.3 c 4.9,-11 14.6,-24.6 24.1,-28.4 3.7,-1.5 37.5,-5.3 58,-5.3 8.9,0 14.9,0.7 18.6,2.1 10.3,4 29.6,21.4 32,33 l 1.6,8 -15.4,0 z"
             id="path34"
             style="fill:#ffffff;fill-rule:nonzero" /></g><g
           transform="translate(-0.1,-31.4)"
           id="g36"><path
             d="m 193.1,228.6 -1.9,-1.8 c -7.2,-6.7 -9.2,-20.6 -7,-26.3 1.5,-3.8 4.7,-5.1 7.1,-5.1 0.7,0 1.3,0.1 1.9,0.3 1.3,-0.1 4.3,-2.6 5.2,-4 1.4,-2.6 4.1,-4.2 7.4,-4.2 4.9,0 12.9,3.9 15.5,7.6 1.5,2.1 1.9,4.6 1.1,6.8 -0.1,0.2 -0.2,0.6 -0.4,1.1 -2.7,8.1 -6.2,18 -9,22.6 l -1.9,3.1 -18,-0.1 z"
             id="path38"
             style="fill:#ffffff;fill-rule:nonzero" /></g><g
           transform="translate(-0.1,-31.4)"
           id="g40"><path
             d="m 192.5,228.6 6.2,-10.1 c 3,-4.9 5.1,-8.9 6.5,-12 -3.5,2.5 -8.4,4 -15.7,4.4 l -0.2,-0.2 -0.1,0.7 c -4.3,0 -7.8,-3.5 -8,-7.8 -0.1,-2.1 0.7,-4.2 2.1,-5.8 1.4,-1.6 3.4,-2.5 5.5,-2.6 7.2,-0.3 8.1,-2 9.4,-4.5 1.8,-3.4 5.7,-5.4 10.8,-5.4 1.3,0 2.6,0.1 3.8,0.4 6.3,1.4 10.4,6.2 10.7,12.4 0.3,6.3 -3.2,15.5 -10.2,27.3 l -1.9,3.2 -18.9,0 z"
             id="path42"
             style="fill:#ffffff;fill-rule:nonzero" /></g><g
           transform="translate(-0.1,-31.4)"
           id="g44"><path
             d="m 218.8,208.9 c -8.1,0 -16.9,-5.3 -21.4,-10.5 -4.1,-4.7 -4.5,-8.9 -4.1,-11.6 0.5,-3.3 3.2,-6.6 8.1,-6.6 0.9,0 1.8,0.1 2.6,0.2 0.8,-3.6 2.7,-11.1 10.4,-11.1 0.4,0 0.7,0 1.1,0 3.7,0.4 6.5,2.7 7.6,6.2 1.2,-0.6 2.6,-1.1 4.2,-1.1 2.4,0 4.7,1 6.4,2.8 2.7,2.9 3.3,6.9 1.6,10.7 1.8,1.1 3.2,2.8 3.8,5 0.8,2.8 0.3,5.8 -1.5,8.2 -3.5,4.9 -11.6,7.2 -18,7.4 -0.4,0.4 -0.6,0.4 -0.8,0.4"
             id="path46"
             style="fill:#ffffff;fill-rule:nonzero" /></g><g
           transform="translate(-0.1,-31.4)"
           id="g48"><path
             d="m 210.8,44.2 c -7.3,4.6 -15.3,15.1 -25.1,29.5 -1.5,2.3 -4,3.5 -6.8,3.5 -3.6,0 -8.2,-2.2 -13.5,-6.5 -8.4,-6.8 -8.6,-10.6 -8.7,-12.1 -0.2,-4 2.8,-7.4 7,-7.8 8.1,-0.7 14.8,-5.6 21.3,-10.3 6.5,-4.7 12.5,-9 19.7,-9 1.4,0 2.9,0.2 4.3,0.5"
             id="path50"
             style="fill:#ffffff;fill-rule:nonzero" /></g><g
           transform="translate(-0.1,-31.4)"
           id="g52"><path
             d="m 164.3,57.5 c 19.6,-1.8 31.1,-22.1 43,-19 -8,5 -15.9,15 -27,31.4 -2.7,3.9 -21.4,-11.9 -16,-12.4"
             id="path54"
             style="fill:#fff8ee;fill-rule:nonzero" /></g><g
           transform="translate(-0.1,-31.4)"
           id="g56"><path
             d="m 37.3,48.2 c 4.9,-4.5 11.5,-6.8 19.6,-6.8 7,0 15.3,1.7 24.6,5.1 2.5,0.9 5.8,1.1 8.3,1.1 l 3.7,0 c 2.3,0 7.2,0 9.3,4.5 0.7,1.7 1.6,5.2 -1.1,9.3 -3.3,5.1 -12,10.5 -20.4,10.5 -0.1,0 -0.3,0 -0.4,0 -4.5,-0.1 -8.7,-2.5 -13.6,-5.2 -6.1,-3.4 -13,-7.3 -21.2,-7.3 -1.1,0 -2.3,0.1 -3.4,0.2"
             id="path58"
             style="fill:#ffffff;fill-rule:nonzero" /></g><g
           transform="translate(-0.1,-31.4)"
           id="g60"><path
             d="m 188.1,96.7 c -3.6,0 -10.4,-1.5 -14.7,-11.7 -2.4,-5.4 -3.2,-11.5 -3.2,-14.9 0,-7 3.7,-8.9 6,-9.4 1.6,-1.6 4.6,-5.7 6.8,-8.8 9.1,-12.4 15.7,-20.5 23.4,-20.5 1.3,0 2.5,0.2 3.7,0.7 10.3,4.1 15.3,12.8 13.6,23.8 -1.2,8.1 -6.3,17.7 -13.8,26.5 -3.5,4.1 -12.6,13.7 -20.7,14.3 -0.4,0 -0.7,0 -1.1,0"
             id="path62"
             style="fill:#ffffff;fill-rule:nonzero" /></g><g
           transform="translate(-0.1,-31.4)"
           id="g64"><path
             d="m 69.9,100.5 c -0.9,0 -1.8,0 -2.6,-0.2 C 54.5,98.2 38.5,85.3 32.5,72 c -4.1,-9.1 -2.3,-15.3 0,-18.9 3.7,-5.9 9.2,-9 16,-9 8.2,0 16.4,4.5 23.6,8.4 2.8,1.5 6.8,3.7 8.5,4.1 0.6,-0.2 1.2,-0.3 1.9,-0.3 2.6,0 5,1.4 6.4,3.8 3.3,5.8 1.3,21.4 -3.9,30.4 -3.6,6.6 -9,10 -15.1,10 z"
             id="path66"
             style="fill:#ffffff;fill-rule:nonzero" /></g><g
           transform="translate(-0.1,-31.4)"
           id="g68"><path
             d="m 114.5,212.1 c -30,0 -59.7,-14.7 -69.6,-25.4 -10.3,-11.1 -14,-23.7 -11.2,-37.5 2.4,-11.3 8.7,-21.4 14.2,-30.4 3.8,-6.2 7.4,-12 8.4,-16.2 12.2,-53.9 42.8,-60.8 68.1,-60.8 1.6,0 3.3,0 5.2,0.1 53.9,1.6 59.3,27.6 62.5,43.2 0.6,2.9 1.2,5.6 1.9,7.4 18.1,44.4 21.1,71 10,89 -10.9,17.7 -34.8,26.4 -82.4,30.3 -2.3,0.2 -4.7,0.3 -7.1,0.3 z"
             id="path70"
             style="fill:#ffffff;fill-rule:nonzero" /></g><g
           transform="translate(-0.1,-31.4)"
           id="g72"><path
             d="M 113.4,212.2 C 82.8,212.2 54.5,197 45,186.7 34.7,175.6 31,163 33.8,149.2 c 2.4,-11.3 8.7,-21.4 14.2,-30.4 3.8,-6.2 7.4,-12 8.4,-16.2 12.2,-53.9 42.8,-60.8 68.1,-60.8 1.6,0 3.3,0 5.2,0.1 53.9,1.6 59.3,27.6 62.5,43.2 0.6,2.9 1.2,5.6 1.9,7.4 17.8,43.7 20.7,70.1 9.8,88.1 -12.5,20.7 -41.9,27.4 -82.1,31.2 -2.8,0.3 -5.6,0.4 -8.4,0.4"
             id="path74"
             style="fill:#ffffff;fill-rule:nonzero" /></g><g
           transform="translate(-0.1,-31.4)"
           id="g76"><path
             d="m 191.3,174.6 c 0.4,-0.9 0.8,-1.9 1.2,-2.8 4.1,-9.8 7.2,-18.4 2.3,-23.9 -5.8,-6.4 -30.3,-18 -52.1,-28.2 C 101,100 75.2,87.3 71.5,74.7 70.6,71.5 71,68.2 72.7,65.4 79.9,54.1 100,42 127.5,42 c 0.3,0 0.5,0 0.8,0 25.9,0.2 44.7,7.7 56,22.1 9.6,12.2 11.7,26.5 13.3,36.9 0.5,3.5 1.2,8 1.9,9.2 19.6,33.7 10.6,58.6 3.5,70.3 l -11.7,-5.9 z"
             id="path78"
             style="fill:#ffffff;fill-rule:nonzero" /></g><g
           transform="translate(-0.1,-31.4)"
           id="g80"><path
             d="m 170.8,135.8 c -10.1,0 -27,-2.5 -32.8,-8.1 -4.6,-4.4 -6.3,-11.7 -8.1,-18.8 -0.7,-3 -1.9,-7.8 -3,-10 l -0.1,0 c -0.4,1.1 -0.9,2.5 -1.3,3.6 -2.7,7.6 -6.5,18.1 -14.4,23.8 -3.4,2.5 -15.7,4.7 -25.2,4.7 -9.5,0 -16.7,-2 -21.5,-6.1 -6.9,-5.8 -12.1,-16.5 -15.6,-31.8 -0.2,-0.1 -0.3,-0.2 -0.5,-0.3 -1.6,-1.1 -3.7,-2.4 -4.8,-4.7 -1.8,-3.6 -1.1,-10 0.8,-13.4 1.4,-2.5 3.8,-4.1 6.4,-4.3 0.3,0 0.5,0 0.9,0 1.4,0 2.8,0.2 4.4,0.5 1.6,0.3 3.5,0.6 5.1,0.6 0.4,0 0.7,0 0.9,0 9.5,-1.4 18.4,-2 26.5,-2 19.7,0 30.1,4 34,5.6 0.3,0.1 0.6,0.2 0.8,0.3 1.1,0.3 3.2,0.7 5.4,0.7 0.8,0 1.6,0 2.3,-0.2 8.9,-1.4 17.4,-2 25.2,-2 20.8,0 31.8,4.7 36.6,6.8 0.4,0.2 0.8,0.4 1.1,0.4 0,0 0.2,0 0.4,0 1.3,0 3.2,-0.4 4.8,-0.7 1.2,-0.3 2.4,-0.5 3.5,-0.7 0.3,0 0.6,0 0.9,0 3.1,0 5.9,1.8 7.6,4.8 1.9,3.5 3.2,10.8 0.5,15 -1.8,2.8 -4.7,4.1 -7.1,5.2 -0.3,0.1 -0.7,0.3 -1,0.5 -0.8,1.4 -2.2,4.2 -3.4,6.5 -3.5,6.8 -7.4,14.6 -11,18.8 -3.2,3.6 -9.2,5.3 -18.3,5.3"
             id="path82"
             style="fill:#ffffff;fill-rule:nonzero" /></g><g
           transform="translate(443.877,337.381)"
           id="g84"><path
             d="m -277.2,-234.6 c -8,0 -19.3,-1.2 -27.4,-6.9 -4.6,-3.3 -6.7,-9.9 -9.6,-20.5 -0.8,-3 -2,-7.2 -2.9,-9.3 -0.5,1.2 -1.1,2.8 -1.6,4.1 -3,8.1 -7.1,19.1 -14.6,23.7 -3.9,2.4 -16,4.6 -25.4,4.6 -10.1,0 -17.4,-2.3 -21.6,-6.7 -10.7,-11.2 -12.8,-21.9 -14.1,-28.2 -0.2,-0.9 -0.4,-2.1 -0.6,-2.8 -6.3,-3.3 -6.7,-8.2 -6.6,-10.3 0.3,-3.9 3.3,-6.8 7,-6.8 2.5,0 4.1,1.2 5.3,2 0.1,0.1 0.2,0.2 0.4,0.2 0.1,0 0.4,0.1 0.5,0.2 1.6,0.5 6.3,1.8 7.3,7.9 0.2,1.1 1.8,7.5 4.4,14.2 4.1,10.7 7,12.5 7.3,12.6 3.4,1.2 7.4,1.8 11.9,1.8 7.4,0 13.6,-1.6 16.1,-2.4 1.5,-2.3 4.5,-8.3 6.6,-12.4 6.3,-12.5 7.4,-14.4 10.1,-15.8 1.5,-0.8 3.3,-1.2 5.6,-1.2 3,0 7.3,0.7 9.3,1.6 4.6,2 7,8 12.4,23.5 1,2.8 2.2,6.4 3,8.2 4,1.9 13.1,3.2 22.6,3.2 2.7,0 4.7,-0.1 6,-0.2 0.9,-1.9 2.2,-4.6 3.3,-6.9 7.6,-16.2 8.8,-18.1 10.7,-19.6 3.3,-2.5 9.1,-4.2 12.4,-4.2 4.4,0 6.8,2.9 7.4,5.7 1.1,5.8 -4.6,8 -6.5,8.7 -0.5,0.2 -1.2,0.5 -1.7,0.7 -0.7,1.2 -2,3.8 -3,5.9 -8.2,16 -10.9,20.4 -14,22.3 -3.8,2.1 -13,3.1 -20,3.1"
             id="path86"
             style="fill:#ffffff;fill-opacity:0.3;fill-rule:nonzero" /></g><g
           transform="translate(285.188,408.716)"
           id="g88"><path
             d="m -223.9,-353.3 c -1.2,0 -3.5,-0.2 -8.1,-1.7 -1.2,-0.4 -2.3,-0.8 -3,-1.1 -1.5,-0.6 -5.4,-2.1 -5.4,-6.7 l 0,-6.7 6.6,0 c 0.9,0 1.5,0.2 2,0.3 1.4,0.2 5.9,0.5 7.4,0.6 l 0.9,0.1 c 1.2,0 4.9,-0.5 6.5,-0.7 2,-0.3 2.6,-0.4 3.4,-0.4 l 5.7,0 0.9,5.6 c 0.4,2.8 -1.1,6.3 -4.8,7.4 -0.2,0.1 -0.9,0.3 -1.5,0.5 -3.5,1.3 -7,2.5 -10,2.6 -0.2,0.2 -0.4,0.2 -0.6,0.2"
             id="path90"
             style="fill:#ffffff;fill-opacity:0.3;fill-rule:nonzero" /></g><g
           transform="translate(484.188,394.21)"
           id="g92"><path
             d="m -290.8,-329.2 c -2.2,0 -4.4,-0.9 -7.4,-3 -2.9,-2 -5.1,-4 -5.1,-7.5 l 0,-6.7 6.5,0 c 0.9,0 1.8,0.2 2.7,0.6 0.7,0.3 3.4,1.2 4.6,1.5 0.4,0 1.2,-0.2 2.8,-0.5 0.8,-0.2 1.3,-0.2 2,-0.2 l 5.7,0 0.9,5.6 c 0.4,2.7 -0.8,6.1 -4.5,7.4 -0.2,0.1 -0.8,0.4 -1.2,0.6 -1.8,0.9 -3.9,1.9 -6,2.3 -0.2,-0.1 -0.6,-0.1 -1,-0.1"
             id="path94"
             style="fill:#ffffff;fill-opacity:0.3;fill-rule:nonzero" /></g><g
           transform="translate(-0.1,-31.4)"
           id="g96"><path
             d="m 182.9,190.1 c -0.9,-1.2 -1.9,-2.3 -3,-3.3 -0.2,-0.2 -0.5,-0.5 -0.7,-0.7 0,0 -0.1,0 -0.2,-0.1 -0.5,-0.2 -1.2,-0.3 -1.9,-0.4 -2.9,-0.4 -6,-0.5 -9.1,-0.6 -6.3,-0.1 -12.6,0.1 -18.9,0.4 -12.6,0.6 -25.3,1.6 -37.8,3 -6.3,0.7 -12.6,1.5 -18.8,2.5 -3.1,0.5 -6.2,1 -9.2,1.7 -1.5,0.3 -3,0.7 -4.4,1.1 -0.7,0.2 -1.4,0.4 -2,0.7 -0.3,0.1 -0.6,0.2 -0.7,0.4 0,0 -0.1,0 -0.1,0.1 -0.7,1 -1.4,2 -2.1,3.1 -0.7,1.1 -1.2,2.3 -1.8,3.5 -1.1,2.4 -2.1,4.9 -3,7.4 -0.9,2.5 -1.9,5.1 -2.8,7.7 -0.5,1.3 -1,2.6 -1.6,3.9 -0.2,0.6 -0.5,1.2 -0.8,1.8 l 8.5,0 c 4.6,-10.3 13.3,-22.1 20.5,-25 2,-0.8 34.2,-4.8 55.5,-4.8 7.9,0 13.3,0.6 16.3,1.7 8.7,3.4 26.1,19.5 27.9,28.2 l 4.9,0 c -1,-5.5 -3,-10.9 -5.3,-16.1 -2.6,-6 -5.7,-11.5 -9.4,-16.2"
             id="path98"
             style="fill:#ba8449;fill-rule:nonzero" /></g><g
           transform="translate(-0.1,-31.4)"
           id="g100"><path
             d="m 196.9,203.8 c -2.7,-6 -5.8,-11.7 -9.9,-16.9 -1,-1.3 -2.1,-2.6 -3.3,-3.8 -0.3,-0.3 -0.6,-0.6 -0.9,-0.9 l -0.2,-0.2 -0.1,-0.1 -0.2,-0.2 c -0.2,-0.1 -0.4,-0.2 -0.5,-0.3 -0.3,-0.2 -0.6,-0.3 -0.9,-0.4 -1.1,-0.4 -1.9,-0.5 -2.8,-0.7 -3.4,-0.5 -6.6,-0.6 -9.8,-0.7 -6.5,-0.1 -12.8,0 -19.2,0.3 -12.8,0.5 -25.5,1.5 -38.2,2.8 -6.3,0.7 -12.7,1.4 -19.1,2.4 -3.2,0.5 -6.3,1 -9.5,1.7 -1.6,0.4 -3.2,0.7 -4.8,1.2 -0.8,0.2 -1.6,0.5 -2.5,0.9 -0.4,0.2 -0.9,0.4 -1.4,0.7 -0.2,0.2 -0.5,0.3 -0.8,0.5 -0.3,0.2 -0.6,0.5 -1,1 -0.9,1.1 -1.8,2.4 -2.6,3.6 -0.8,1.2 -1.6,2.5 -2.3,3.8 -1.4,2.5 -2.7,5.1 -3.9,7.7 -1.1,2.6 -2.2,5.2 -3.1,7.9 -0.5,1.3 -0.9,2.6 -1.2,4 -0.2,0.7 -0.4,1.3 -0.6,2 l -0.3,1 -0.1,0.5 c 0,0.1 0.2,0.2 0.6,0.5 l 5.9,0 c 0.3,-0.6 0.5,-1.2 0.8,-1.8 0.5,-1.3 1.1,-2.6 1.6,-3.8 1,-2.6 1.9,-5.1 2.8,-7.7 0.9,-2.5 1.9,-5.1 3,-7.4 0.6,-1.2 1.2,-2.3 1.8,-3.5 0.7,-1.1 1.3,-2.1 2.1,-3.1 0,0 0.1,0 0.1,-0.1 0.2,-0.1 0.5,-0.2 0.7,-0.4 0.6,-0.2 1.3,-0.5 2,-0.7 1.4,-0.4 2.9,-0.8 4.4,-1.1 3,-0.7 6.1,-1.2 9.2,-1.7 6.2,-1 12.5,-1.8 18.8,-2.5 12.6,-1.4 25.2,-2.4 37.8,-3 6.3,-0.3 12.6,-0.5 18.9,-0.4 3.1,0.1 6.3,0.2 9.1,0.6 0.7,0.1 1.4,0.3 1.9,0.4 0.1,0 0.2,0 0.2,0.1 0.2,0.2 0.5,0.5 0.7,0.7 1.1,1.1 2,2.2 3,3.3 3.7,4.7 6.8,10.2 9.4,15.8 2.3,5.2 4.3,10.6 5.3,16.1 l 5,0 c -0.5,-3.1 -1.3,-6.1 -2.2,-9 -1.2,-3.1 -2.4,-6.1 -3.7,-9.1"
             id="path102"
             style="fill:#895b2e;fill-rule:nonzero" /></g><g
           transform="translate(-0.1,-31.4)"
           id="g104"><path
             d="m 164.1,195.7 c -2.6,-1 -7.9,-1.6 -15.5,-1.6 -21.4,0 -53,4 -54.7,4.7 -6.5,2.6 -14.6,13.6 -19.1,23.2 l 115.9,0 c -1.9,-7.5 -18,-22.9 -26.6,-26.3"
             id="path106"
             style="fill:#fff8ee;fill-rule:nonzero" /></g><g
           transform="translate(-0.1,-31.4)"
           id="g108"><path
             d="m 164.8,193.8 c -2.9,-1.1 -8.4,-1.7 -16.3,-1.7 -21.3,0 -53.5,4 -55.5,4.8 -7.3,3 -15.9,14.7 -20.5,25 l 2.2,0 c 4.5,-9.5 12.6,-20.5 19.1,-23.2 1.7,-0.7 33.3,-4.7 54.7,-4.7 7.6,0 12.9,0.5 15.5,1.6 8.6,3.3 24.7,18.8 26.6,26.3 l 2,0 c -1.7,-8.6 -19.1,-24.7 -27.8,-28.1"
             id="path110"
             style="fill:#e5d0ae;fill-rule:nonzero" /></g><g
           transform="translate(-0.1,-31.4)"
           id="g112"><path
             d="m 204.4,194.7 c -1.2,2.5 -7.5,8.9 -12.8,7.4 -2.8,-0.8 -2.3,14 4.1,19.9 l 11.6,0 c 3.2,-5.1 8.2,-20.7 8.8,-22.3 0.7,-1.9 -10.5,-7.5 -11.7,-5"
             id="path114"
             style="fill:#ba8449;fill-rule:nonzero" /></g><g
           transform="translate(-0.1,-31.4)"
           id="g116"><path
             d="m 216.7,198.4 c -0.2,-3.2 -2.1,-5.5 -5.5,-6.3 -2.7,-0.6 -6.3,-0.1 -7.2,1.6 -1.8,3.4 -4,7.5 -14.9,8.1 -0.7,0 -1.3,0.7 -1.3,1.4 0,0.7 0.7,1.3 1.4,1.3 11.4,-0.5 14.7,-4.9 17.1,-9.4 0.5,-0.4 3.2,-0.9 5.4,0 1.6,0.7 2.3,1.8 2.4,3.5 0.3,6.2 -6.2,17.7 -9.7,23.5 l 3.1,0 c 3.9,-6.8 9.5,-17.3 9.2,-23.7"
             id="path118"
             style="fill:#895b2e;fill-rule:nonzero" /></g><g
           transform="translate(485.235,204.6)"
           id="g120"><path
             d="m -291.1,-13.7 c 7.1,-1.7 13.4,-8.8 13.9,-18.9 0.1,-1.9 -3.8,-5.5 -3.8,-6.5 0,-1 11.9,0.2 12.5,3 0.5,2.8 -7.4,19.7 -10.1,22.5 -2.6,2.7 -16.7,0.9 -12.5,-0.1"
             id="path122"
             style="fill:#e3ab5e;fill-opacity:0.15;fill-rule:nonzero" /></g><g
           transform="translate(-0.1,-31.4)"
           id="g124"><path
             d="m 199.8,187.8 c -0.9,6.2 11.2,14.7 19.4,14.5 6.8,-0.2 14.5,-3.4 13.4,-7.2 -1.1,-3.9 -7.7,0.7 -8.3,-2 -0.5,-2.6 7.7,-7.5 4.4,-11.1 -3.1,-3.3 -6.7,5.2 -10.3,4 -3.6,-1.2 0.7,-9.5 -3.8,-10 -5.3,-0.5 -3.3,11.3 -7.3,11.5 -2.8,0.3 -7.2,-1.7 -7.5,0.3"
             id="path126"
             style="fill:#fcd4c3;fill-rule:nonzero" /></g><g
           transform="translate(-0.1,-31.4)"
           id="g128"><path
             d="m 199.8,187.8 c -0.9,6.2 11.2,14.7 19.4,14.5 6.8,-0.2 14.5,-3.4 13.4,-7.2 -1.1,-3.9 -7.7,0.7 -8.3,-2 -0.5,-2.6 7.7,-7.5 4.4,-11.1 -3.1,-3.3 -6.7,5.2 -10.3,4 -3.6,-1.2 0.7,-9.5 -3.8,-10 -5.3,-0.5 -3.3,11.3 -7.3,11.5 -2.8,0.3 -7.2,-1.7 -7.5,0.3 z"
             id="path130"
             style="fill:none;stroke:#f8a38f;stroke-width:2px" /></g><g
           transform="translate(498.838,256.642)"
           id="g132"><path
             d="m -295.7,-100.3 c 1.3,1 6,2.3 6.7,0.6 0.8,-1.7 1.4,-5.1 0.9,-5.6 -0.4,1.6 -0.9,4.6 -2.6,5.3 -1.3,0.5 -4.1,-0.1 -5,-0.3"
             id="path134"
             style="fill:#fcd4c3;fill-opacity:0.5;fill-rule:nonzero" /></g><g
           transform="translate(518.359,266.642)"
           id="g136"><path
             d="m -302.3,-116.9 c -0.2,1.1 -1.1,6.3 1.6,7 2.3,0.6 4,-0.8 5.8,-3.7 -1,0.9 -3.5,3.1 -5.4,2.3 -1.9,-0.9 -2.1,-2.9 -2,-5.6"
             id="path138"
             style="fill:#fcd4c3;fill-opacity:0.5;fill-rule:nonzero" /></g><g
           transform="translate(500.776,245.558)"
           id="g140"><path
             d="m -296.3,-81.8 c 13.6,-6.7 16.4,4.2 15.7,6.4 -5.4,0.9 -14.9,-4.7 -15.7,-6.4"
             id="path142"
             style="fill:#fcd4c3;fill-opacity:0.25;fill-rule:nonzero" /></g><g
           transform="translate(530.651,251.996)"
           id="g144"><path
             d="m -306.4,-92.5 c -2.3,2.6 -1.2,4.7 0.3,5 1.9,0.4 4.4,-1.6 4,-1.6 -0.5,0 -4.2,1.2 -4.9,-0.6 -0.5,-1.4 0.3,-2.2 0.6,-2.8"
             id="path146"
             style="fill:#fcd4c3;fill-opacity:0.5;fill-rule:nonzero" /></g><g
           transform="translate(296.734,225.766)"
           id="g148"><path
             d="m -227.8,-48.9 c 43.7,25.1 130.4,-0.4 125.8,-8.6 -6.1,-10.9 -8.5,-17.7 -21.9,-17.1 -13.3,0.7 -98.9,7.5 -102.4,10.1 -3.4,2.7 -7.2,12.3 -1.5,15.6"
             id="path150"
             style="fill:#e3ab5e;fill-opacity:0.15;fill-rule:nonzero" /></g><g
           transform="translate(-0.1,-31.4)"
           id="g152"><path
             d="m 164.3,57.5 c 19.6,-1.8 31.1,-22.1 43,-19 -8,5 -15.9,15 -27,31.4 -2.7,3.9 -21.4,-11.9 -16,-12.4"
             id="path154"
             style="fill:#fff8ee;fill-rule:nonzero" /></g><g
           transform="translate(-0.1,-31.4)"
           id="g156"><path
             d="m 164.3,57.5 c 19.6,-1.8 31.1,-22.1 43,-19 -8,5 -15.9,15 -27,31.4 -2.7,3.9 -21.4,-11.9 -16,-12.4 z"
             id="path158"
             style="fill:none;stroke:#e5d0ae;stroke-width:3px;stroke-linecap:round;stroke-linejoin:round" /></g><g
           transform="translate(-0.1,-31.4)"
           id="g160"><path
             d="m 41.8,53.1 c 8.8,-8.2 24.7,-5 37.5,-0.4 7.3,2.6 16.8,0.5 17.4,2 C 98.3,58.2 88.8,65.4 81,65.2 73.3,65.1 60.4,50.6 41.8,53.1"
             id="path162"
             style="fill:#ba8449;fill-rule:nonzero" /></g><g
           transform="translate(-0.1,-31.4)"
           id="g164"><path
             d="m 41.8,53.1 c 8.8,-8.2 24.7,-5 37.5,-0.4 7.3,2.6 16.8,0.5 17.4,2 C 98.3,58.2 88.8,65.4 81,65.2 73.3,65.1 60.4,50.6 41.8,53.1 z"
             id="path166"
             style="fill:none;stroke:#895b2e;stroke-width:2px;stroke-linecap:round;stroke-linejoin:round" /></g><g
           transform="translate(-0.1,-31.4)"
           id="g168"><path
             d="m 177.7,67.2 c 4.5,1.3 21.6,-32.2 29.9,-28.9 26.4,10.5 -8,50.9 -18.9,51.8 -11,0.8 -13.5,-23.7 -11,-22.9"
             id="path170"
             style="fill:#fcd4c3;fill-rule:nonzero" /></g><g
           transform="translate(-0.1,-31.4)"
           id="g172"><path
             d="m 177.7,67.2 c 4.5,1.3 21.6,-32.2 29.9,-28.9 26.4,10.5 -8,50.9 -18.9,51.8 -11,0.8 -13.5,-23.7 -11,-22.9 z"
             id="path174"
             style="fill:none;stroke:#f8a38f;stroke-width:2px" /></g><g
           transform="translate(-0.1,-31.4)"
           id="g176"><path
             d="M 82.3,63.2 C 75,66.4 49.1,39.3 38.2,56.7 31,68.2 52.8,91.4 68.4,93.9 84,96.4 86.1,61.5 82.3,63.2"
             id="path178"
             style="fill:#fcd4c3;fill-rule:nonzero" /></g><g
           transform="translate(-0.1,-31.4)"
           id="g180"><path
             d="M 82.3,63.2 C 75,66.4 49.1,39.3 38.2,56.7 31,68.2 52.8,91.4 68.4,93.9 84,96.4 86.1,61.5 82.3,63.2 z"
             id="path182"
             style="fill:none;stroke:#f8a38f;stroke-width:2px" /></g><g
           transform="translate(491.067,472.101)"
           id="g184"><path
             d="m -293.1,-458.7 c -1.4,4.6 -13.2,16.5 -11.6,26.7 0.6,3.8 4.6,15 6.3,14.6 1.7,-0.4 6,-3.1 5.6,-2.5 -0.4,0.6 -6,4.7 -8.1,5.8 -2.1,-1.1 -11,-21.8 -9.7,-22.9 3.9,-3.5 15.8,-21.5 17.5,-21.7"
             id="path186"
             style="fill:#fcd4c3;fill-rule:nonzero" /></g><g
           transform="translate(250.733,453.101)"
           id="g188"><path
             d="m -212.3,-427.1 c 8,-4.9 22.6,-2.8 31.1,5.5 3,3 3.9,13 -2.9,19.8 -2.7,2.7 16,-9.6 16.1,-13.2 0,-3.6 -1.2,-4.6 -4,-5.6 -10.3,-3.8 -21.1,-12.6 -30.5,-12.4 -6.1,0.1 -8.9,4.3 -9.8,5.9"
             id="path190"
             style="fill:#fcd4c3;fill-rule:nonzero" /></g><g
           transform="translate(495.9,475.975)"
           id="g192"><path
             d="m -294.7,-465.2 c 18.2,10 -11.1,25.2 -8.9,44.1 -3.8,-0.4 -13.2,-18.7 -10.9,-20.3 3.2,-2.2 16.7,-24.6 19.8,-23.8"
             id="path194"
             style="fill:#fcd4c3;fill-opacity:0.25;fill-rule:nonzero" /></g><g
           transform="translate(-0.1,-31.4)"
           id="g196"><path
             d="m 60.9,103.6 c 0.3,-1.3 0.5,-2.7 0.5,-4 0.1,-1.4 0.2,-2.8 0.5,-4.1 0.1,-0.7 0.3,-1.4 0.6,-2 0.3,-0.6 0.5,-1.3 0.7,-1.9 0.5,-1.3 1,-2.6 1.6,-3.8 2.3,-5.1 4.9,-9.9 8.1,-14.4 3.2,-4.5 6.7,-8.7 10.7,-12.3 4,-3.7 8.7,-6.7 13.7,-8.7 5,-2.1 10.4,-3.4 15.8,-4 5.4,-0.7 10.8,-0.8 16.2,-0.7 5.4,0.1 10.8,0.4 16.2,1.1 5.4,0.7 10.8,1.9 16,3.8 2.6,1 5.1,2.1 7.5,3.5 2.4,1.4 4.7,3.1 6.8,5.1 2.1,1.9 3.9,4.2 5.4,6.6 1.5,2.4 2.6,5 3.6,7.7 0.9,2.6 1.6,5.3 2.2,8 0.6,2.7 1,5.3 1.6,7.8 0.3,1.2 0.7,2.4 1.1,3.6 0.5,1.2 1,2.5 1.4,3.8 0.9,2.5 1.9,5.1 2.8,7.6 3.5,10.2 6.6,20.6 8.5,31.2 0.9,5.3 1.6,10.7 1.7,16.1 0.1,5.4 -0.4,10.8 -1.9,16 -0.4,1.3 -0.8,2.6 -1.3,3.8 -0.5,1.2 -1.2,2.4 -1.6,3.7 -0.2,0.7 -0.4,1.3 -0.7,1.9 -0.3,0.6 -0.7,1.2 -1.1,1.8 -0.7,1.1 -1.6,2.3 -2.5,3.3 -3.5,4.2 -8,7.6 -12.8,10.2 -4.8,2.6 -10,4.6 -15.2,6.1 -5.3,1.5 -10.5,2.7 -15.9,3.7 -5.4,1 -10.7,1.7 -16,2.4 -2.7,0.3 -5.4,0.6 -8.1,0.9 l -4,0.4 c -1.3,0.1 -2.7,0.2 -4.1,0.3 -11,0.6 -22,-1 -32.5,-3.9 C 81.1,202.7 76,200.9 71,198.7 66,196.5 61.1,194 56.5,191 c -2.3,-1.5 -4.6,-3.2 -6.7,-5.1 -0.5,-0.5 -1.1,-1 -1.6,-1.5 -0.5,-0.5 -0.9,-1.1 -1.4,-1.6 -0.9,-1.1 -1.8,-2.2 -2.6,-3.3 -3.1,-4.6 -5.6,-10 -6.4,-15.6 -0.9,-5.7 -0.1,-11.5 1.5,-16.8 1.6,-5.4 4.1,-10.3 6.7,-15.1 2.7,-4.7 5.6,-9.3 8.4,-13.8 1.4,-2.3 2.7,-4.6 3.9,-6.9 1.1,-3 2.1,-5.3 2.6,-7.7 z m 4,0.9 c -0.7,2.8 -1.9,5.4 -3.2,7.9 -1.3,2.5 -2.7,4.8 -4.1,7.1 -2.8,4.6 -5.7,9.1 -8.2,13.7 -2.5,4.6 -4.8,9.4 -6.2,14.3 -1.4,4.9 -2,10 -1.2,15 0.8,4.9 2.9,9.6 5.9,13.7 0.7,1 1.6,2 2.4,3 0.4,0.5 0.9,1 1.3,1.4 0.4,0.5 0.9,0.9 1.3,1.3 1.8,1.7 3.9,3.2 6.1,4.7 4.4,2.8 9,5.3 13.9,7.4 4.8,2.1 9.8,3.9 14.9,5.3 5.1,1.4 10.2,2.5 15.4,3.2 5.2,0.7 10.4,0.9 15.6,0.7 1.3,-0.1 2.6,-0.2 3.9,-0.3 l 4,-0.4 c 2.6,-0.2 5.3,-0.5 8,-0.8 5.3,-0.5 10.6,-1.2 15.8,-2.1 5.3,-0.9 10.4,-1.9 15.5,-3.3 5.1,-1.4 10.1,-3 14.9,-5.1 4.7,-2.2 9.3,-4.9 13,-8.6 0.9,-0.9 1.8,-1.9 2.6,-2.9 0.4,-0.5 0.8,-1.1 1.2,-1.6 0.4,-0.5 0.9,-1 1.3,-1.6 0.9,-1.1 1.3,-2.3 1.9,-3.5 0.5,-1.2 0.9,-2.5 1.2,-3.8 1.3,-5.2 1.6,-10.6 1.3,-15.9 -0.4,-5.3 -1.3,-10.6 -2.6,-15.8 -2.5,-10.4 -6.2,-20.4 -10.1,-30.3 -1,-2.5 -2,-5 -3,-7.4 l -1.6,-3.7 c -0.5,-1.3 -1,-2.7 -1.4,-4 -0.7,-2.7 -1.2,-5.3 -1.8,-7.9 -0.5,-2.6 -1.2,-5.1 -2,-7.5 -1.7,-4.9 -4.2,-9.3 -7.9,-12.8 -3.6,-3.5 -8.1,-6.2 -12.9,-8.2 -4.8,-2 -10,-3.3 -15.2,-4.2 -5.2,-0.9 -10.5,-1.4 -15.8,-1.7 -5.3,-0.2 -10.7,-0.3 -16,0.3 -5.3,0.6 -10.5,1.7 -15.4,3.8 -4.9,2 -9.4,4.9 -13.2,8.5 -3.9,3.6 -7,8 -9.3,12.6 -2.4,4.7 -4.1,9.7 -5.6,14.7 -0.4,1.2 -0.7,2.5 -1,3.8 -0.2,0.6 -0.3,1.3 -0.5,1.9 -0.1,0.3 -0.1,0.7 -0.2,1 -0.1,0.3 -0.2,0.6 -0.4,0.9 -0.5,1.2 -1.1,2.4 -1.7,3.6 -0.2,1.1 -0.6,2.3 -0.9,3.6 z"
             id="path198"
             style="fill:#e5d0ae;fill-rule:nonzero" /></g><g
           transform="translate(-0.1,-31.4)"
           id="g200"><path
             d="m 62.9,104.1 c -4.2,18.6 -40.9,48 -13,78.1 9.5,10.2 40.3,25.9 71.2,23 80.4,-7.6 100.7,-27 66.8,-110.2 -5.5,-13.5 0.7,-44.7 -58.4,-46.5 -24.8,-0.7 -54.6,2.7 -66.6,55.6"
             id="path202"
             style="fill:#fff8ee;fill-rule:nonzero" /></g><g
           transform="translate(-0.1,-31.4)"
           id="g204"><path
             d="m 76.8,67.7 c 2.6,-4 6,-7.3 9.8,-10 3.8,-2.7 8.1,-4.7 12.4,-6.3 8.8,-3.2 18,-4.4 27.2,-4.7 9.2,-0.2 18.5,0.5 27.5,2.8 4.5,1.2 8.9,2.8 13.1,5.1 4.2,2.3 8.1,5.1 11.4,8.6 3.3,3.5 6,7.4 8.1,11.7 2.1,4.3 3.6,8.8 4.7,13.3 1.1,4.6 1.8,9.1 2.4,13.6 0.3,2.3 0.6,4.5 1.1,6.6 0.2,1.1 0.5,2.1 0.8,2.9 0.1,0.2 0.2,0.4 0.3,0.6 l 0.2,0.2 0.2,0.4 0.9,1.5 c 4.4,8.1 7.7,17 8.9,26.3 0.6,4.6 0.7,9.3 0.2,14 -0.5,4.6 -1.7,9.2 -3.5,13.5 -0.9,2.1 -1.9,4.2 -3.1,6.3 -0.3,0.5 -0.6,1 -0.9,1.5 -0.3,0.5 -0.6,0.9 -1,1.5 -0.1,0.1 -0.1,0.2 -0.2,0.3 -0.3,-0.2 0.4,0.7 -1.6,0 -0.5,-0.9 -0.2,-0.7 -0.3,-0.9 0,-0.3 0.1,-0.4 0.1,-0.6 l 0.3,-0.9 0.5,-1.6 c 1.4,-4.3 2.6,-8.6 3.1,-13.1 0.2,-2.2 0.3,-4.4 0,-6.7 -0.3,-2.2 -0.9,-4.3 -2,-6.1 -0.3,-0.5 -0.6,-0.9 -1,-1.3 -0.4,-0.4 -0.7,-0.8 -1.1,-1.2 -0.8,-0.8 -1.6,-1.5 -2.5,-2.2 -1.8,-1.4 -3.7,-2.5 -5.7,-3.5 -4.1,-1.8 -8.6,-2.5 -13,-2.3 -4.5,0.2 -8.9,1.1 -13.2,2.3 -2.2,0.6 -4.3,1.3 -6.5,2 -1.1,0.4 -2.2,0.7 -3.3,1 -0.6,0.2 -1.1,0.3 -1.8,0.4 -0.6,0.1 -1.1,0.2 -1.7,0.2 -4.6,0.5 -9.1,0.8 -13.8,0.7 -4.6,-0.1 -9.2,-0.6 -13.8,-1.6 -4.5,-1 -9,-2.5 -13.2,-4.4 -4.2,-2 -8.2,-4.4 -11.8,-7.4 -3.6,-3 -6.8,-6.4 -9.6,-10.1 -5.6,-7.5 -9.3,-16.2 -11.1,-25.3 -0.9,-4.6 -1.3,-9.2 -1.1,-13.9 0.1,-2.3 0.4,-4.7 0.9,-7 0.6,-1.8 1.4,-4.1 2.7,-6.2 z m 2,1.3 c -1.1,1.8 -1.8,3.8 -2.3,6 -0.5,2.1 -0.7,4.3 -0.9,6.5 -0.2,4.4 0.3,8.9 1.2,13.2 1.9,8.7 5.6,17 11,24 2.7,3.5 5.8,6.7 9.2,9.5 3.4,2.8 7.2,5.2 11.2,7.1 4,1.9 8.2,3.3 12.6,4.3 4.3,1 8.8,1.6 13.2,1.7 4.5,0.2 8.9,0 13.4,-0.5 l 1.7,-0.2 c 0.5,-0.1 1,-0.2 1.6,-0.3 1.1,-0.3 2.1,-0.6 3.2,-0.9 2.2,-0.6 4.4,-1.3 6.6,-1.8 4.4,-1.1 9,-1.9 13.7,-1.9 4.6,0 9.3,0.8 13.5,2.8 2.1,1 4.1,2.2 5.9,3.6 0.9,0.7 1.8,1.5 2.6,2.3 0.4,0.4 0.8,0.8 1.2,1.2 0.4,0.4 0.8,0.9 1.1,1.4 1.3,2 2,4.3 2.3,6.7 0.3,2.4 0.3,4.7 0.1,7 -0.4,4.6 -1.4,9.1 -2.7,13.5 l -0.5,1.6 -0.2,0.8 c 0,0.1 -0.1,0.3 0,0.3 -0.1,-0.1 0.2,0.2 -0.2,-0.7 -1.9,-0.7 -1.2,0.2 -1.4,-0.1 0.2,-0.4 0.5,-0.9 0.8,-1.4 0.3,-0.5 0.5,-1 0.8,-1.5 1,-2 1.9,-4 2.7,-6.1 3,-8.3 3.6,-17.4 2.1,-26.1 -0.7,-4.4 -2,-8.6 -3.6,-12.7 -1.6,-4.1 -3.5,-8.1 -5.7,-12 l -0.8,-1.4 -0.2,-0.4 -0.1,-0.2 -0.1,-0.2 c -0.2,-0.3 -0.3,-0.6 -0.4,-0.9 -0.5,-1.2 -0.8,-2.5 -1.1,-3.6 -0.5,-2.3 -0.9,-4.6 -1.2,-6.8 -0.7,-4.5 -1.3,-8.9 -2.4,-13.2 -1,-4.3 -2.4,-8.5 -4.3,-12.4 -1.9,-3.9 -4.2,-7.5 -7.2,-10.7 -5.8,-6.3 -13.8,-10.5 -22.3,-13 -8.5,-2.5 -17.5,-3.3 -26.5,-3.3 -8.9,0 -17.9,1.1 -26.3,3.9 -4.2,1.4 -8.2,3.3 -11.9,5.8 -3.8,2.4 -7,5.4 -9.4,9.1 l 0,0 z"
             id="path206"
             style="fill:#e5bfa1;fill-rule:nonzero" /></g><g
           transform="translate(-0.1,-31.4)"
           id="g208"><path
             d="m 75.6,67.2 c 1.5,-2.4 3.3,-4.3 5.1,-6.1 1.9,-1.8 3.9,-3.3 6,-4.7 4.2,-2.8 8.7,-5 13.4,-6.7 9.4,-3.3 19.3,-4.6 29.1,-4.4 9.7,0.3 19.5,1.5 28.9,4.9 4.7,1.7 9.2,3.9 13.3,6.9 4.1,2.9 7.7,6.5 10.7,10.6 2.9,4.1 5.1,8.6 6.8,13.3 1.6,4.7 2.7,9.5 3.5,14.2 0.4,2.4 0.7,4.7 1.1,7.1 0.4,2.3 0.7,4.7 1.1,6.8 0.2,1.1 0.5,2.1 0.9,2.9 l 0.8,1.6 0.9,1.6 c 1.1,2.1 2.2,4.3 3.2,6.5 1.9,4.4 3.5,9.1 4.6,13.9 1.1,4.7 1.6,9.6 1.6,14.5 -0.1,9.8 -2.8,19.5 -7.9,27.8 -0.4,0.6 -1.2,0.9 -1.8,0.5 -0.6,-0.4 -0.8,-1.1 -0.6,-1.6 1.4,-3.6 2.9,-7 4,-10.5 1.2,-3.5 2,-7.1 2,-10.6 0,-3.5 -0.9,-6.9 -3,-9.6 -0.1,-0.2 -0.3,-0.4 -0.4,-0.5 l -0.2,-0.2 -0.2,-0.3 c -0.3,-0.3 -0.6,-0.6 -0.9,-0.9 -0.6,-0.6 -1.3,-1.2 -2,-1.7 -1.4,-1.1 -3,-2.1 -4.5,-3.1 -6.3,-3.9 -13,-7.3 -19.8,-10.7 -6.8,-3.3 -13.7,-6.5 -20.5,-9.6 C 137,112.8 123.2,106.5 109.6,99.7 102.8,96.2 96.1,92.7 89.5,88.5 86,86 82.8,83.8 79.7,81 c -1.5,-1.4 -3,-3 -4.2,-5.2 -0.6,-1.1 -1.1,-2.4 -1.2,-4 0,-0.8 0,-1.6 0.2,-2.4 0.1,-0.4 0.2,-0.8 0.4,-1.2 0.1,-0.3 0.4,-0.9 0.5,-1 l 0.2,0 z m 5.6,3.4 c -0.2,0.3 -0.1,0.2 -0.2,0.3 0,0.1 0,0.1 -0.1,0.2 0,0.1 0,0.2 0,0.4 0,0.3 0.2,0.8 0.4,1.4 0.6,1.2 1.7,2.5 2.9,3.6 2.5,2.4 5.4,4.6 8.5,6.6 6.1,4.1 12.7,7.7 19.4,11.3 13.3,7 27,13.5 40.6,20.1 6.8,3.3 13.6,6.7 20.4,10.1 6.8,3.5 13.5,7 20,11.3 1.6,1.1 3.2,2.2 4.7,3.5 0.8,0.6 1.5,1.3 2.3,2 0.4,0.4 0.7,0.7 1.1,1.2 l 0.2,0.3 0.3,0.3 c 0.2,0.2 0.3,0.4 0.5,0.6 1.2,1.7 2.1,3.6 2.7,5.6 0.6,2 0.7,4.1 0.7,6.1 -0.1,4 -1.2,7.9 -2.5,11.6 -1.3,3.7 -2.9,7.1 -4.4,10.6 l -2.4,-1.2 c 4.7,-8 6.9,-17.2 6.8,-26.4 -0.2,-9.2 -2.6,-18.3 -6.5,-26.7 -1,-2.1 -2,-4.2 -3.2,-6.2 l -1.8,-3.2 c -0.7,-1.3 -1,-2.6 -1.3,-3.8 -0.6,-2.5 -1,-4.8 -1.4,-7.2 -0.4,-2.4 -0.8,-4.7 -1.2,-6.9 -0.9,-4.6 -2,-9 -3.6,-13.3 -1.6,-4.2 -3.7,-8.3 -6.3,-11.8 -2.6,-3.6 -5.9,-6.7 -9.5,-9.2 -3.7,-2.5 -7.7,-4.5 -12,-5.9 -8.6,-2.9 -17.8,-3.9 -27,-4 -4.6,0 -9.1,0.2 -13.6,1 -4.5,0.7 -8.9,1.8 -13.1,3.3 -4.2,1.5 -8.3,3.4 -12,5.8 -1.9,1.2 -3.6,2.5 -5.2,4 -1.6,1.5 -3.1,3 -4.2,4.6 z"
             id="path210"
             style="fill:#895b2e;fill-rule:nonzero" /></g><g
           transform="translate(-0.1,-31.4)"
           id="g212"><path
             d="m 77.8,68.3 c -11,17 2.1,82.3 71.2,73.5 7.3,-0.9 31.6,-13.9 48,4.3 8.9,10 -3.1,35.3 0,30 3.5,-5.8 16.9,-28.2 -3.2,-62.7 -6.4,-11.1 4.2,-64.4 -65,-65.1 -26.5,-0.1 -43.7,8.7 -51,20"
             id="path214"
             style="fill:#ba8449;fill-rule:nonzero" /></g><g
           transform="translate(307.068,430.433)"
           id="g216"><path
             d="m -231.2,-389.4 c 19.9,-12.8 80.1,-11.9 99.3,18.8 12.8,20.4 -10.6,70.8 -19.3,77.2 -8.6,6.4 -20.6,12 -52.2,4.4 -26.8,-6.4 13.5,-31.3 -17.9,-34.9 -28.7,-3.3 -31.6,-51.5 -9.9,-65.5"
             id="path218"
             style="fill:#e3ab5e;fill-opacity:0.15;fill-rule:nonzero" /></g><g
           transform="translate(390.9,355.766)"
           id="g220"><path
             d="m -259.4,-265.2 c 0,1.5 -2.9,2.8 -6.5,2.8 -3.6,0 -6.5,-1.2 -6.5,-2.8 0,-1.5 2.9,-2.8 6.5,-2.8 3.6,0.1 6.5,1.3 6.5,2.8"
             id="path222"
             style="fill:#e3ab5e;fill-opacity:0.25;fill-rule:nonzero" /></g><g
           transform="translate(-0.1,-31.4)"
           id="g224"><path
             d="m 120.1,113.8 c 1.5,-1 9.5,-0.7 10.5,0.4 1,1 3.2,5.2 0.7,7 -0.9,0.6 -0.9,-1.9 -2.9,-1.5 -2.4,0.5 -1.1,3.6 -3,3.6 -2.9,-0.1 -0.1,-3.4 -2.6,-3.8 -1.9,-0.4 -2.3,1.5 -3.2,1.3 -2.9,-0.6 -1.6,-5.6 0.5,-7"
             id="path226"
             style="fill:#f8a38f;fill-rule:nonzero" /></g><g
           transform="translate(380.121,369.005)"
           id="g228"><path
             d="m -255.8,-287.2 c -1.9,0 -3.7,0.2 -4.3,0.6 -2.1,1.4 -3.4,6.4 -0.6,6.9 l 0.1,0 c 0.7,0 1.1,-1.4 2.6,-1.4 0.2,0 0.3,0 0.5,0 2.5,0.4 -0.2,3.8 2.6,3.8 1.8,0 0.5,-3 3,-3.5 0.2,0 0.3,0 0.4,0 1.4,0 1.6,1.6 2.2,1.6 0.1,0 0.2,0 0.3,-0.1 2.6,-1.8 0.4,-6 -0.7,-7 -0.5,-0.5 -3.4,-0.9 -6.1,-0.9 m 0,0.7 c 3,0 5.3,0.4 5.7,0.7 0.6,0.6 1.8,2.8 1.6,4.4 -0.1,0.6 -0.3,1.1 -0.7,1.4 0,-0.1 -0.1,-0.1 -0.2,-0.2 -0.4,-0.5 -1,-1.3 -2.1,-1.3 -0.2,0 -0.4,0 -0.5,0.1 -1.7,0.4 -2,1.7 -2.3,2.6 -0.2,0.9 -0.3,0.9 -0.6,0.9 -0.8,0 -0.8,-0.2 -0.8,-1.1 0,-0.9 0,-2.3 -1.8,-2.6 -0.2,0 -0.4,0 -0.6,0 -1.1,0 -1.8,0.7 -2.3,1.1 -0.1,0.1 -0.3,0.3 -0.4,0.3 -0.4,-0.1 -0.8,-0.3 -1,-1.1 -0.3,-1.4 0.7,-3.8 1.8,-4.6 0.6,-0.4 2,-0.6 4.2,-0.6"
             id="path230"
             style="fill:#f8a38f;fill-rule:nonzero" /></g><g
           transform="translate(473.999,328.55)"
           id="g232"><path
             d="m -287.3,-219.9 c 3,19.2 -21,43.3 -53.3,48.3 -32.3,4.9 -56.1,-23.9 -59.1,-43.2 -3,-19.2 16.8,-11.9 49.1,-16.8 32.3,-4.9 60.3,-7.5 63.3,11.7"
             id="path234"
             style="fill:#f7e8d0;fill-opacity:0.25;fill-rule:nonzero" /></g><g
           transform="translate(347.115,284.577)"
           id="g236"><path
             d="m -244.7,-146.7 c -0.9,-1.4 -1.4,-3.1 -1.9,-4.7 -0.5,-1.6 -1,-3.2 -1.5,-4.8 -1,-3.2 -2.1,-6.4 -3.6,-9.4 -1.5,-3 -3.4,-5.8 -5.8,-7.9 -2.4,-2.1 -5.3,-3.5 -8.4,-4.1 -1.1,-0.4 -1.6,-1.5 -1.2,-2.5 0.4,-1 1.4,-1.5 2.3,-1.3 7.2,1.7 14.7,2.5 22.1,2.6 7.4,0.1 15,-0.3 22.5,-1.2 7.5,-0.9 14.9,-2.2 22.2,-3.9 7.3,-1.7 14.6,-3.7 21.7,-6.1 1.1,-0.4 2.2,0.2 2.5,1.2 0.3,0.8 0,1.6 -0.6,2.1 -0.2,0.2 -0.6,0.5 -0.9,0.8 -0.3,0.3 -0.6,0.7 -0.9,1 -0.6,0.7 -1.2,1.5 -1.8,2.3 -1.2,1.6 -2.3,3.2 -3.3,4.9 -2.2,3.3 -4.2,6.7 -6.1,10.2 -1.9,3.5 -3.8,7 -5.5,10.5 -0.9,1.8 -1.7,3.6 -2.4,5.4 -0.4,0.9 -0.7,1.8 -1.1,2.8 -0.2,0.5 -0.3,0.9 -0.4,1.4 0,0 0,0.1 0,0.2 0,0.1 0,0.1 -0.1,0.2 0,0.1 -0.1,0.2 -0.2,0.2 -0.1,0.1 -0.2,0.2 -0.4,0.3 -0.2,0.2 -0.5,0.3 -0.7,0.4 -1.9,0.8 -3.9,1.2 -5.8,1.6 -1.9,0.4 -3.9,0.7 -5.9,0.9 -4,0.5 -7.9,0.9 -11.9,1 -4,0.2 -8,0.2 -11.9,-0.2 -2,-0.2 -4,-0.5 -5.9,-1 -1,-0.3 -1.9,-0.6 -2.8,-1.1 -0.9,-0.4 -1.7,-1 -2.3,-1.8 m 0.1,-0.1 c 0.5,0.8 1.4,1.4 2.3,1.8 0.9,0.4 1.8,0.7 2.8,1 1.9,0.5 3.9,0.8 5.9,0.9 4,0.3 7.9,0.3 11.9,0.1 4,-0.2 7.9,-0.7 11.8,-1.2 1.9,-0.3 3.9,-0.6 5.8,-1.1 1.9,-0.5 3.9,-0.9 5.6,-1.7 0.2,-0.1 0.4,-0.2 0.6,-0.4 0.2,-0.1 0.3,-0.2 0.3,-0.3 0.1,-0.5 0.2,-1 0.4,-1.5 0.3,-1 0.6,-1.9 0.9,-2.9 0.7,-1.9 1.4,-3.7 2.2,-5.6 1.6,-3.7 3.2,-7.3 4.9,-10.9 1.7,-3.6 3.5,-7.2 5.4,-10.7 0.9,-1.8 1.9,-3.5 3,-5.3 0.5,-0.9 1.1,-1.8 1.7,-2.6 0.3,-0.4 0.6,-0.9 0.9,-1.3 0.4,-0.4 0.7,-0.9 1.2,-1.3 l 1.9,3.4 c -7.3,2.5 -14.6,4.5 -22.1,6.2 -7.5,1.7 -15,3.1 -22.6,4 -7.6,0.9 -15.3,1.4 -23,1.2 -7.7,-0.2 -15.4,-1.1 -23,-2.9 l 1.1,-4 c 3.3,2 6.3,3.9 8.6,6.6 2.3,2.7 3.9,5.8 5.2,9 1.2,3.2 2.2,6.5 3,9.7 0.4,1.6 0.9,3.3 1.3,4.9 0.6,1.9 1.1,3.5 2,4.9"
             id="path238"
             style="fill:#d8cab2;fill-opacity:0.5;fill-rule:nonzero" /></g><g
           transform="translate(347.132,284.588)"
           id="g240"><path
             d="m -244.7,-146.7 c -0.9,-1.4 -1.4,-3 -1.9,-4.6 -0.5,-1.6 -0.9,-3.2 -1.4,-4.8 -1,-3.2 -2,-6.4 -3.5,-9.5 -1.4,-3 -3.3,-5.8 -5.6,-8 -2.4,-2.3 -5.3,-3.9 -8.4,-4.6 l 0,-0.1 c -0.5,-0.2 -0.8,-0.8 -0.6,-1.3 0.2,-0.5 0.7,-0.8 1.2,-0.7 7.3,1.7 14.8,2.5 22.4,2.6 7.6,0.1 15.1,-0.3 22.6,-1.2 7.5,-0.9 14.9,-2.3 22.3,-3.9 7.4,-1.7 14.7,-3.7 21.8,-6.1 0.5,-0.2 1.1,0.1 1.3,0.6 0.1,0.4 0,0.8 -0.3,1.1 -0.6,0.5 -1.3,1.3 -1.9,2 -0.6,0.7 -1.2,1.6 -1.8,2.3 -1.1,1.6 -2.2,3.3 -3.2,5 -2.1,3.3 -4.1,6.8 -6,10.3 -1.9,3.5 -3.7,7 -5.3,10.6 -0.8,1.8 -1.6,3.6 -2.4,5.4 -0.4,0.9 -0.7,1.8 -1,2.8 -0.2,0.5 -0.3,0.9 -0.4,1.4 -0.1,0.4 -0.4,0.5 -0.6,0.7 -0.2,0.2 -0.5,0.3 -0.7,0.4 -1.9,0.8 -3.9,1.2 -5.8,1.6 -1.9,0.4 -3.9,0.7 -5.9,1 -3.9,0.5 -7.9,0.9 -11.9,1.1 -4,0.2 -8,0.2 -11.9,-0.2 -2,-0.2 -4,-0.5 -5.9,-1 -1,-0.3 -1.9,-0.6 -2.8,-1 -1,-0.5 -1.9,-1.1 -2.4,-1.9 m 0,-0.1 c 0.5,0.8 1.4,1.4 2.3,1.9 0.9,0.4 1.8,0.7 2.8,1 1.9,0.5 3.9,0.8 5.9,0.9 4,0.4 7.9,0.3 11.9,0.1 4,-0.2 7.9,-0.6 11.9,-1.2 1.9,-0.3 3.9,-0.6 5.9,-1.1 1.9,-0.4 3.9,-0.9 5.6,-1.7 0.2,-0.1 0.4,-0.2 0.6,-0.4 0.2,-0.1 0.4,-0.3 0.4,-0.4 0.1,-0.5 0.2,-1 0.4,-1.5 0.3,-1 0.6,-1.9 1,-2.8 0.7,-1.9 1.5,-3.7 2.3,-5.5 1.6,-3.7 3.3,-7.2 5.1,-10.8 1.8,-3.6 3.6,-7.1 5.6,-10.6 1,-1.8 2,-3.5 3.1,-5.1 0.5,-0.9 1.1,-1.7 1.7,-2.5 0.6,-0.8 1.2,-1.6 2.1,-2.4 l 1,1.8 c -7.2,2.5 -14.6,4.5 -22,6.2 -7.4,1.7 -14.9,3 -22.5,4 -7.6,0.9 -15.2,1.4 -22.9,1.2 -7.6,-0.2 -15.3,-1 -22.8,-2.7 l 0.5,-1.9 c 3.3,1.3 6.3,3.3 8.6,5.9 2.3,2.6 4,5.6 5.3,8.7 1.3,3.1 2.3,6.3 3.2,9.6 0.4,1.6 0.9,3.2 1.4,4.9 0.2,1.4 0.7,3 1.6,4.4"
             id="path242"
             style="fill:#d8cab2;fill-opacity:0.5;fill-rule:nonzero" /></g><g
           transform="translate(-0.1,-31.4)"
           id="g244"><path
             d="m 102.6,169.2 c 5.1,8 46.8,2.5 47.5,-0.7 1.8,-8.1 16.8,-36.7 21.6,-40.7 -8.6,3 -53.3,17.3 -89.6,8.6 16.3,5.5 16.5,26.6 20.5,32.8"
             id="path246"
             style="fill:#333333;fill-rule:nonzero" /></g><g
           transform="translate(451.15,346.85)"
           id="g248"><path
             d="m -279.7,-250.3 c -6.7,2.3 -34.9,11.4 -64.1,11.4 -8.6,0 -17.2,-0.8 -25.5,-2.7 16.4,5.3 16.6,26.5 20.6,32.7 1.9,3 9.2,4.1 17.5,4.1 13.4,0 29.5,-2.8 30,-4.8 1.8,-8.2 16.7,-36.8 21.5,-40.7 m -5.6,3.9 c -6.5,9.8 -15.9,28.7 -17.8,35.8 -2.5,1.4 -15.4,3.8 -28.1,3.8 -10.2,0 -14.8,-1.7 -15.8,-3.2 -1,-1.5 -1.8,-4.3 -2.6,-7.5 -1.7,-6.1 -4.1,-14.5 -9.8,-20.3 5,0.6 10.2,0.9 15.7,0.9 23.8,-0.1 47.1,-6.1 58.4,-9.5"
             id="path250"
             style="fill:#333333;fill-rule:nonzero" /></g><g
           transform="translate(-0.1,-31.4)"
           id="g252"><path
             d="m 119.7,173.4 c -8.6,0 -14.2,-1.2 -16.4,-3.6 -0.2,-0.2 -0.2,-1.4 0.8,-3.7 2.4,-5.5 9.8,-14.9 22.6,-15.7 0.9,0 1.7,-0.1 2.5,-0.1 15,0 24,7.6 24,8.9 -0.2,0.4 -0.4,1 -0.7,1.8 -0.8,1.9 -2,4.9 -3.1,8.1 -1.3,1.3 -16.3,4.3 -29.7,4.3"
             id="path254"
             style="fill:#fcd4c3;fill-rule:nonzero" /></g><g
           transform="translate(-0.1,-31.4)"
           id="g256"><path
             d="m 129.2,149.8 c -0.9,0 -1.7,0 -2.6,0.1 -17.5,1.1 -25.6,18.4 -23.8,20.5 2.6,2.8 9.3,3.8 16.9,3.8 13.5,0 29.8,-3.1 30.3,-4.6 1.5,-4.5 3.2,-8.2 3.9,-10 0.6,-1.8 -9.5,-9.9 -24.7,-9.8 m 0,1.3 c 13.4,0 22.4,6.4 23.3,8.3 -0.2,0.4 -0.4,0.9 -0.6,1.5 -0.8,1.9 -2,4.7 -3.1,7.9 -2.1,1.2 -16.1,3.9 -29.1,3.9 -8.1,0 -13.7,-1.2 -15.8,-3.3 -0.1,-0.7 0.6,-3.5 3.1,-7 2.2,-3.2 8.6,-10.7 19.7,-11.3 0.8,0 1.7,0 2.5,0"
             id="path258"
             style="fill:#f8a38f;fill-rule:nonzero" /></g><g
           transform="translate(347.984,284.517)"
           id="g260"><path
             d="m -245,-146.6 c -1.2,5.4 31.9,-21.1 49.7,-8.4 3.7,-4.9 -16,-13.2 -27.5,-11.3 -9.7,1.7 -19.7,7.9 -22.2,19.7"
             id="path262"
             style="fill:#fcd4c3;fill-rule:nonzero" /></g><g
           transform="translate(-0.1,-31.4)"
           id="g264"><path
             d="m 109.8,140.8 c 1.7,3 4.8,17.6 6.1,17.9 1.3,0.3 9.5,2.6 10.6,2.1 1.2,-0.5 1.1,-3.3 2.3,-2.5 1,0.7 1.5,2 2.5,1.5 1.8,-0.9 7.1,-4.2 8,-5.6 0.8,-1.5 0.7,-9.8 0,-16.4 -3.4,1.6 -23.5,3.7 -29.5,3"
             id="path266"
             style="fill:#fff7e3;fill-rule:nonzero" /></g><g
           transform="translate(402.65,331.85)"
           id="g268"><path
             d="m -263.4,-225.4 c -3,1.3 -18.7,3.1 -26.6,3.1 -1.2,0 -2.1,0 -2.9,-0.1 1.7,3 4.8,17.6 6.1,17.9 1.2,0.3 8,2.2 10.1,2.2 0.2,0 0.4,0 0.5,-0.1 1,-0.4 1.1,-2.6 1.9,-2.6 0.1,0 0.3,0 0.4,0.2 0.9,0.5 1.3,1.6 2.1,1.6 0.1,0 0.3,0 0.4,-0.1 1.8,-0.9 7.1,-4.2 8,-5.6 0.9,-1.5 0.7,-9.8 0,-16.5 m -0.5,0.9 c 0.6,6.8 0.6,14 0,15.2 -0.7,1.2 -5.5,4.3 -7.7,5.4 l -0.1,0 c -0.2,0 -0.5,-0.3 -0.7,-0.6 -0.3,-0.3 -0.6,-0.6 -1,-0.9 -0.3,-0.2 -0.5,-0.3 -0.8,-0.3 -0.9,0 -1.2,0.9 -1.5,1.6 -0.2,0.4 -0.4,1 -0.7,1.1 0,0 -0.1,0 -0.3,0 -1.7,0 -6.8,-1.4 -8.9,-1.9 -0.4,-0.1 -0.7,-0.2 -0.9,-0.2 -0.6,-0.7 -1.9,-5.4 -2.9,-8.8 -0.9,-3.1 -1.7,-6 -2.4,-7.7 0.5,0 1.2,0 1.9,0 7.5,0 21.5,-1.6 26,-2.9"
             id="path270"
             style="fill:#ffdc99;fill-rule:nonzero" /></g><g
           transform="translate(361.651,316.85)"
           id="g272"><path
             d="m -249.6,-200.4 c -0.5,-5.4 24.4,-7.2 27.5,-6.7 0,-1.3 -0.2,-2.1 -0.2,-3.6 -4.1,2.1 -26.5,4.3 -29.5,3.4 0.3,0.6 1.4,3.6 2.2,6.9"
             id="path274"
             style="fill:#eadcbe;fill-rule:nonzero" /></g><g
           transform="translate(380.358,322.968)"
           id="g276"><path
             d="m -255.9,-210.6 c 0.5,1.2 1,2.3 1.4,3.5 0.4,1.2 0.8,2.4 1.2,3.6 l 2.2,7.2 -1.7,0.5 -0.8,-3.7 -0.9,-3.7 c -0.3,-1.2 -0.6,-2.4 -0.9,-3.6 -0.4,-1.2 -0.7,-2.4 -1.1,-3.5 l 0.6,-0.3 z"
             id="path278"
             style="fill:#ffdc99;fill-rule:nonzero" /></g><g
           transform="translate(253.484,450.517)"
           id="g280"><path
             d="m -213.2,-422.8 c 13.2,3.4 11.1,26.2 18.9,28 7.9,1.8 18.2,-18.8 19.2,-23.3 -15.2,-6.5 -22.3,-14.1 -33.2,-11.9 -3.6,0.7 -8.6,6.2 -4.9,7.2"
             id="path282"
             style="fill:#fcd4c3;fill-opacity:0.4;fill-rule:nonzero" /></g><g
           transform="translate(308.567,349.933)"
           id="g284"><path
             d="m -231.7,-255.5 c 16.6,1.3 30.3,2 35.2,-3.1 4.9,-5.1 6.7,-27.7 14.7,-27.1 6.8,0.5 9.1,29.9 13.5,30.7 4.4,0.9 35.5,9.4 43.3,1.4 7.7,-8 11.3,-13 9.5,-17.8 -1.8,-4.8 -47.3,-20.3 -56.6,-21.2 -9.3,-0.9 -72.1,7 -73.7,10.9 -1.6,4 -3.3,3.4 -3,7.6 0.6,8.1 0.5,17.3 17.1,18.6"
             id="path286"
             style="fill:#e3ab5e;fill-opacity:0.5;fill-rule:nonzero" /></g><g
           transform="translate(-0.1,-31.4)"
           id="g288"><path
             d="m 123.5,92.4 c 1.2,0 5.9,-0.4 7,0.5 6,4.7 5.8,24 12.1,30 5.6,5.4 36.2,9.3 41.5,3.2 5.3,-6.1 13.1,-24.7 14.9,-26.1 1.8,-1.3 5.8,-2.3 7,-4.2 1.2,-1.8 0.2,-10 -2.6,-9.6 -2.8,0.4 -8.1,2.1 -11.4,1.2 -3.3,-1 -19.4,-11.1 -59.9,-5 -3.9,0.6 -7.8,0 -10.5,-0.7 C 118.9,81 103.7,72.2 63,78 c -4,0.6 -9.6,-1.2 -11.6,-1 -2,0.2 -2.6,6.5 -1.8,8.1 0.8,1.6 5,3 5.5,5 0.5,2 4.2,21.6 13.8,29.7 10.2,8.6 36.2,2.6 38.5,1 10.3,-7.3 12.6,-28.4 16.1,-28.4"
             id="path290"
             style="fill:#333333;fill-rule:nonzero" /></g><g
           transform="translate(325.938,424.823)"
           id="g292"><path
             d="m -237.6,-380.1 c -7.1,0 -15.6,0.5 -25.6,2 -0.6,0.1 -1.2,0.1 -1.8,0.1 -3.5,0 -7.6,-1.1 -9.5,-1.1 -0.1,0 -0.2,0 -0.3,0 -2,0.2 -2.6,6.5 -1.8,8.1 0.8,1.7 5,3 5.5,5 0.5,2 4.2,21.6 13.8,29.7 4,3.4 10.6,4.5 17.2,4.5 10,0 19.9,-2.5 21.3,-3.5 10.4,-7.4 12.8,-28.5 16.3,-28.5 0.5,0 1.8,-0.1 3,-0.1 1.6,0 3.3,0.1 3.9,0.5 6,4.7 5.8,24 12.1,30 3.6,3.4 17.4,6.3 28.2,6.3 6.1,0 11.3,-0.9 13.2,-3.1 5.3,-6.1 13.1,-24.7 14.9,-26.1 1.8,-1.4 5.8,-2.3 7,-4.2 1.1,-1.8 0.2,-9.6 -2.5,-9.6 0,0 -0.1,0 -0.2,0 -2.2,0.3 -6,1.4 -9.1,1.4 -0.8,0 -1.6,-0.1 -2.3,-0.3 -2.6,-0.8 -12.7,-6.9 -35.7,-6.9 -6.9,0 -14.9,0.5 -24.2,1.9 -1.1,0.2 -2.3,0.2 -3.3,0.2 -2.7,0 -5.2,-0.4 -7.1,-0.9 -2,-0.2 -11.2,-5.4 -33,-5.4 m 0,2 c 18.1,0 27.4,3.6 30.8,5 0.7,0.3 1.2,0.5 1.7,0.6 1.8,0.4 4.5,1 7.6,1 1.2,0 2.5,-0.1 3.6,-0.3 8.5,-1.3 16.5,-1.9 23.9,-1.9 19,0 28.9,4.2 33.2,6.1 0.9,0.4 1.5,0.6 2,0.8 0.9,0.3 1.8,0.4 2.9,0.4 2.2,0 4.6,-0.5 6.6,-0.9 0.9,-0.2 1.8,-0.4 2.5,-0.5 0.9,1 1.5,5.4 1,6.6 -0.4,0.6 -2.1,1.4 -3.3,1.9 -1.2,0.5 -2.3,1 -3.1,1.6 -1.1,0.8 -2.2,2.9 -5.4,9.3 -3.1,6.1 -6.9,13.7 -9.8,17 -1,1.2 -4.6,2.4 -11.8,2.4 -10.5,0 -23.9,-2.8 -26.9,-5.7 -2.8,-2.6 -4.2,-8.7 -5.6,-14.6 -1.6,-6.6 -3.1,-12.8 -6.6,-15.6 -0.9,-0.7 -2.3,-1 -5.1,-1 l -3.1,0 c -2.8,0 -4,3.3 -6.1,9.3 -2.3,6.6 -5.6,15.5 -11.3,19.6 -1.3,0.8 -10.7,3.2 -20.2,3.2 -7.3,0 -12.8,-1.4 -15.9,-4 -3.8,-3.2 -9.1,-10.7 -12.9,-27.8 -0.1,-0.4 -0.2,-0.7 -0.2,-0.9 -0.5,-1.9 -2.3,-3 -3.8,-4 -0.6,-0.4 -1.6,-1.1 -1.8,-1.4 -0.4,-0.9 0,-4.2 0.6,-5.3 0.7,0 1.7,0.2 2.8,0.4 1.9,0.3 4.3,0.7 6.5,0.7 0.7,0 1.5,0 2.1,-0.2 8.9,-1.1 17.4,-1.8 25.1,-1.8"
             id="path294"
             style="fill:#1a1a1a;fill-rule:nonzero" /></g><g
           transform="translate(292.4,403.35)"
           id="g296"><path
             d="m -226.3,-344.3 c -0.9,1.2 -1.5,18.9 6,23.7 4.9,3.2 25.7,2.5 29.9,0.2 6.5,-3.7 12.9,-20.5 11.1,-22.9 -3,-4 -24.6,-9.3 -40.8,-5.1 -2,0.4 -5.1,2.6 -6.2,4.1 z"
             id="path298"
             style="fill:none;stroke:#333333;stroke-width:4px;stroke-opacity:0.5" /></g><g
           transform="translate(-0.1,-31.4)"
           id="g300"><path
             d="m 66.2,90.4 c -0.9,1.2 -1.5,18.9 6,23.7 4.9,3.2 25.7,2.5 29.9,0.2 6.5,-3.7 12.9,-20.5 11.1,-22.9 -3,-4 -24.6,-9.3 -40.8,-5.1 -2,0.5 -5.1,2.6 -6.2,4.1"
             id="path302"
             style="fill:#ffffff;fill-rule:nonzero" /></g><g
           transform="translate(476.494,391.663)"
           id="g304"><path
             d="m -288.2,-324.9 c 0.8,1.3 -1,18.9 -9,22.8 -5.3,2.5 -25.8,-0.9 -29.6,-3.7 -6,-4.5 -10.2,-22 -8.1,-24.2 3.5,-3.6 25.6,-6 41.1,0.2 1.9,0.7 4.7,3.3 5.6,4.9 z"
             id="path306"
             style="fill:none;stroke:#333333;stroke-width:4px;stroke-opacity:0.5" /></g><g
           transform="translate(-0.1,-31.4)"
           id="g308"><path
             d="m 188.4,98.2 c 0.8,1.3 -1,18.9 -9,22.8 -5.3,2.5 -25.8,-0.9 -29.6,-3.7 -6,-4.5 -10.2,-22 -8.1,-24.2 3.5,-3.6 25.6,-6 41.1,0.2 1.9,0.7 4.6,3.2 5.6,4.9"
             id="path310"
             style="fill:#ffffff;fill-rule:nonzero" /></g><g
           transform="translate(-0.1,-31.4)"
           id="g312"><path
             d="m 89.9,101.2 c -0.5,3.9 -2.5,6.8 -4.4,6.5 -1.9,-0.3 -2.9,-3.6 -2.4,-7.5 0.5,-3.9 2.5,-6.8 4.4,-6.5 1.9,0.3 2.9,3.6 2.4,7.5"
             id="path314"
             style="fill:#000000;fill-rule:nonzero" /></g><g
           transform="translate(-0.1,-31.4)"
           id="g316"><path
             d="m 169.6,105.6 c 0.4,3.9 -0.8,7.2 -2.6,7.4 -1.9,0.2 -3.7,-2.8 -4.1,-6.7 -0.4,-3.9 0.8,-7.2 2.6,-7.4 1.8,-0.1 3.6,2.9 4.1,6.7"
             id="path318"
             style="fill:#000000;fill-rule:nonzero" /></g><g
           transform="translate(270.275,414.85)"
           id="g320"><path
             d="m -218.9,-363.5 c 2.3,1.5 4.4,0.6 4.9,3.6 0.5,3 7.4,29 16,32 14.1,4.9 31.9,0.1 34.3,-1.4 2.4,-1.5 13.7,-26.8 15.6,-27.8 1.9,-1 7.9,0.1 9.2,0.7 3.9,1.7 11.1,29.1 13,30.5 8.7,6.1 36.6,5.6 37.9,4 1.4,-1.7 11.8,-25.6 13.7,-27 2.7,-2.1 9,-3.5 9.2,-2.6 0.2,0.9 -5.1,1.8 -6.7,3.7 -1.6,2 -12.1,24.9 -15.4,26.9 -3.3,2 -27.7,5.3 -40.1,-3.4 -5.9,-4.2 -8.2,-29.1 -12.9,-30.5 -3,-0.9 -5.3,-0.8 -7.5,-0.2 -2.9,1.9 -7,23.1 -15.7,28.4 -3.5,2.1 -30.6,7.4 -38.7,-1.1 -15.1,-15.8 -10.5,-29.9 -15.4,-31.9 -3.3,-1.4 -4,-3.2 -4,-4.4 0.3,-1.3 1.4,-0.3 2.6,0.5"
             id="path322"
             style="fill:#333333;fill-opacity:0.3;fill-rule:nonzero" /></g><g
           transform="translate(270.65,422.85)"
           id="g324"><path
             d="m -219,-376.8 c -1.6,-0.6 6.8,2.9 9.9,2.7 3.1,-0.2 8.3,-2.4 10,-2.9 1.5,-0.5 -7.8,1.2 -10.1,1.1 -2.3,-0.1 -8.9,-0.6 -9.8,-0.9"
             id="path326"
             style="fill:#333333;fill-opacity:0.3;fill-rule:nonzero" /></g><g
           transform="translate(368.4,415.85)"
           id="g328"><path
             d="m -251.9,-365.1 c 2.9,1.3 4.2,4.6 7,4.9 2.8,0.3 6.2,0.8 7.8,-0.1 1.6,-0.9 5.6,-3 6.7,-3.2 1.2,-0.2 -8.7,1.3 -12.4,1 -3.7,-0.4 -8,-2.5 -9.1,-2.6"
             id="path330"
             style="fill:#333333;fill-opacity:0.3;fill-rule:nonzero" /></g><g
           transform="translate(475.275,409.975)"
           id="g332"><path
             d="m -287.8,-355.4 c -1.2,-0.5 4.4,4 6.1,3.8 1.7,-0.2 4.7,-2.1 6,-2.6 1,-0.4 -4,1 -5.5,0.7 -1.5,-0.1 -5.4,-1.4 -6.6,-1.9"
             id="path334"
             style="fill:#333333;fill-opacity:0.3;fill-rule:nonzero" /></g><g
           transform="translate(287.65,407.225)"
           id="g336"><path
             d="m -224.7,-350.8 c 7.4,-7.3 25,-4.8 28.2,-4.2 -21.1,1.5 -21.5,3.1 -25.2,6.8 -0.5,2.9 -1.2,12.5 2.1,20.9 -3.7,-2 -7.6,-21 -5.1,-23.5"
             id="path338"
             style="fill:#333333;fill-opacity:0.3;fill-rule:nonzero" /></g><g
           transform="translate(482.56,395.398)"
           id="g340"><path
             d="m -290.2,-331.1 c -6.4,-8.2 -24.1,-8.1 -27.4,-7.8 20.7,4.3 20.9,5.9 24.1,10.1 0.2,2.9 -0.4,12.5 -4.7,20.4 3.8,-1.6 10.1,-20 8,-22.7"
             id="path342"
             style="fill:#333333;fill-opacity:0.3;fill-rule:nonzero" /></g><g
           transform="translate(292.712,384.975)"
           id="g344"><path
             d="m -226.4,-313.8 c 0.7,-8.6 1.5,-15.6 18.6,-16.1 13.7,-0.4 24.6,2.8 26.1,6.1 1,2.1 0.2,11.3 -6.6,19.7 4.4,-3.9 11.4,-19.4 8.4,-21.3 -11.1,-7.1 -33.2,-7.3 -41.4,-4.4 -1.5,0.5 -3.9,2.2 -5.5,4 -0.3,2.2 -0.3,10.8 0.4,12"
             id="path346"
             style="fill:#d0dddc;fill-rule:nonzero" /></g><g
           transform="translate(293.484,384.1)"
           id="g348"><path
             d="m -226.7,-312.3 c 2.6,16.8 33.3,11.7 35.1,11 -0.1,0.9 -16.1,5.4 -29.5,0.2 -5.4,-2 -5.8,-13.1 -5.6,-11.2"
             id="path350"
             style="fill:#d0dddc;fill-rule:nonzero" /></g><g
           transform="translate(474.357,373.687)"
           id="g352"><path
             d="m -287.5,-295 c 0.4,-8.7 0.4,-15.6 -16.4,-18.2 -13.5,-2.1 -24.7,-0.3 -26.7,2.8 -1.2,1.9 -1.6,11.2 4.2,20.4 -3.9,-4.5 -9,-20.6 -5.7,-22.2 11.9,-5.7 33.9,-3.2 41.6,0.7 1.4,0.7 3.7,2.6 5,4.7 -0.1,2.1 -1.1,10.7 -2,11.8"
             id="path354"
             style="fill:#d0dddc;fill-rule:nonzero" /></g><g
           transform="translate(473.483,372.914)"
           id="g356"><path
             d="m -287.2,-293.7 c -4.6,16.3 -34.5,7.5 -36.2,6.6 0,0.9 15.3,7.3 29.3,3.9 5.6,-1.4 7.5,-12.4 6.9,-10.5"
             id="path358"
             style="fill:#d0dddc;fill-rule:nonzero" /></g><g
           transform="translate(327.275,394.6)"
           id="g360"><path
             d="m -238,-329.8 c 0,-0.5 -0.4,-1 -1,-1 -0.6,0 -1,0.4 -1,1 0,0.6 0.4,1 1,1 0.6,0 1,-0.4 1,-1"
             id="path362"
             style="fill:#ffffff;fill-opacity:0.25;fill-rule:nonzero" /></g><g
           transform="translate(446.275,387.6)"
           id="g364"><path
             d="m -278,-318.1 c 0,-0.5 -0.4,-1 -1,-1 -0.5,0 -1,0.4 -1,1 0,0.6 0.4,1 1,1 0.5,0 1,-0.5 1,-1"
             id="path366"
             style="fill:#ffffff;fill-opacity:0.25;fill-rule:nonzero" /></g><g
           transform="translate(271.025,416.475)"
           id="g368"><path
             d="m -219.1,-366.2 c 2.4,2.7 3.9,3 7.1,2.6 31.1,-4 48.3,-3.9 56.8,4 1.8,1.7 0.8,-5.1 -2.6,-6 -26.2,-6.9 -45.2,-0.7 -49.2,-0.2 -4.1,0.6 -7,-0.3 -12.1,-0.4"
             id="path370"
             style="fill:#d0dddc;fill-opacity:0.1;fill-rule:nonzero" /></g><g
           transform="translate(400.525,410.475)"
           id="g372"><path
             d="m -262.6,-356.2 c -0.7,0.7 -0.4,7.9 3,5.2 9.8,-7.8 30.3,-6 44.6,-1.2 -2.3,-4.5 -19,-7.6 -28.4,-7.5 -4.5,0.2 -17.3,1.5 -19.2,3.5"
             id="path374"
             style="fill:#d0dddc;fill-opacity:0.1;fill-rule:nonzero" /></g><g
           transform="translate(-0.1,-31.4)"
           id="g376"><path
             d="m 197.2,91.4 c 0,0.3 -1.6,0.5 -3.5,0.5 -1.9,0 -3.5,-0.2 -3.5,-0.5 0,-0.3 1.6,-0.5 3.5,-0.5 2,0 3.5,0.3 3.5,0.5"
             id="path378"
             style="fill:#d0dddc;fill-rule:nonzero" /></g><g
           transform="translate(-0.1,-31.4)"
           id="g380"><path
             d="m 62.4,82.8 c 0,0.3 -1.6,0.3 -3.5,0 -1.9,-0.3 -3.4,-0.8 -3.3,-1.1 0.1,-0.3 1.6,-0.3 3.5,0 1.9,0.2 3.4,0.7 3.3,1.1"
             id="path382"
             style="fill:#d0dddc;fill-rule:nonzero" /></g></g></g></g><defs
     id="defs384"><linearGradient
       x1="0"
       y1="0"
       x2="1"
       y2="0"
       id="_Linear1"
       gradientUnits="userSpaceOnUse"
       gradientTransform="matrix(18.1153,65.2151,-65.2151,18.1153,25.0676,1.4599)"><stop
         id="stop387"
         style="stop-color:#00cdd7;stop-opacity:1"
         offset="0" /><stop
         id="stop389"
         style="stop-color:#00cdd7;stop-opacity:1"
         offset="0.28" /><stop
         id="stop391"
         style="stop-color:#2086d7;stop-opacity:1"
         offset="0.94" /><stop
         id="stop393"
         style="stop-color:#2086d7;stop-opacity:1"
         offset="1" /></linearGradient><linearGradient
       x1="0"
       y1="0"
       x2="1"
       y2="0"
       id="_Linear2"
       gradientUnits="userSpaceOnUse"
       gradientTransform="matrix(30.6451,44.937,-44.937,30.6451,30.7199,9.7343)"><stop
         id="stop396"
         style="stop-color:#fff045;stop-opacity:1"
         offset="0" /><stop
         id="stop398"
         style="stop-color:#fff045;stop-opacity:1"
         offset="0.13" /><stop
         id="stop400"
         style="stop-color:#00cdd7;stop-opacity:1"
         offset="0.36000001" /><stop
         id="stop402"
         style="stop-color:#00cdd7;stop-opacity:1"
         offset="1" /></linearGradient><linearGradient
       x1="0"
       y1="0"
       x2="1"
       y2="0"
       id="_Linear3"
       gradientUnits="userSpaceOnUse"
       gradientTransform="matrix(4.0246,14.2537,-14.2537,4.0246,61.0819,15.2899)"><stop
         id="stop405"
         style="stop-color:#00cdd7;stop-opacity:1"
         offset="0" /><stop
         id="stop407"
         style="stop-color:#00cdd7;stop-opacity:1"
         offset="0.28" /><stop
         id="stop409"
         style="stop-color:#2086d7;stop-opacity:1"
         offset="0.94" /><stop
         id="stop411"
         style="stop-color:#2086d7;stop-opacity:1"
         offset="1" /></linearGradient><linearGradient
       x1="0"
       y1="0"
       x2="1"
       y2="0"
       id="linearGradient3587"
       xlink:href="#_Linear1"
       gradientUnits="userSpaceOnUse"
       gradientTransform="matrix(18.1153,65.2151,-65.2151,18.1153,25.0676,1.4599)" /><linearGradient
       x1="0"
       y1="0"
       x2="1"
       y2="0"
       id="linearGradient3589"
       xlink:href="#_Linear2"
       gradientUnits="userSpaceOnUse"
       gradientTransform="matrix(30.6451,44.937,-44.937,30.6451,30.7199,9.7343)" /><linearGradient
       x1="0"
       y1="0"
       x2="1"
       y2="0"
       id="linearGradient3591"
       xlink:href="#_Linear3"
       gradientUnits="userSpaceOnUse"
       gradientTransform="matrix(4.0246,14.2537,-14.2537,4.0246,61.0819,15.2899)" /></defs></svg>
